<?xml version="1.0" standalone="no"?>
<!DOCTYPE svg PUBLIC "-//W3C//DTD SVG 20010904//EN"
 "http://www.w3.org/TR/2001/REC-SVG-20010904/DTD/svg10.dtd">
<svg version="1.0" xmlns="http://www.w3.org/2000/svg"
 width="500.000000pt" height="500.000000pt" viewBox="0 0 500.000000 500.000000"
 preserveAspectRatio="xMidYMid meet">
<metadata>
Created by potrace 1.14, written by Peter Selinger 2001-2017
</metadata>
<g transform="translate(0.000000,500.000000) scale(0.100000,-0.100000)"
fill="#000000" stroke="none">
<path d="M0 2500 l0 -2500 2500 0 2500 0 0 2500 0 2500 -2500 0 -2500 0 0
-2500z m2792 1776 c306 -52 602 -183 834 -368 96 -77 267 -258 338 -357 156
-219 268 -487 313 -754 22 -128 24 -442 4 -567 -35 -221 -108 -433 -213 -617
l-42 -73 -1526 0 -1526 0 -42 73 c-151 264 -232 573 -232 882 0 131 21 319 46
420 53 214 165 461 282 625 77 109 246 288 346 368 392 313 924 451 1418 368z
m963 -3064 c-66 -64 -163 -147 -215 -185 -194 -137 -475 -255 -719 -299 -166
-30 -476 -30 -642 0 -244 44 -525 162 -719 299 -52 38 -149 121 -215 185
l-120 117 1375 0 1375 0 -120 -117z"/>
<path d="M1890 3233 c-28 -123 -145 -514 -165 -553 -21 -40 -67 -63 -97 -49
-39 18 -56 51 -134 271 -92 258 -107 289 -150 328 -57 49 -128 65 -296 65 -80
0 -149 -3 -153 -7 -4 -3 98 -271 225 -595 338 -856 329 -829 310 -877 -22 -58
87 -147 190 -154 55 -4 59 -2 98 32 22 20 55 67 75 104 33 63 347 878 417
1082 27 80 32 104 28 160 -10 137 -100 236 -253 276 -27 8 -55 14 -61 14 -6 0
-22 -44 -34 -97z"/>
<path d="M2624 3259 c6 -66 40 -161 62 -180 9 -7 25 -31 37 -53 26 -50 26 -61
35 -752 l7 -520 27 -41 c17 -25 44 -49 74 -63 43 -21 52 -22 114 -13 60 10
193 63 205 83 3 4 -2 40 -11 81 -19 90 -22 261 -5 310 15 46 44 73 68 65 11
-4 87 -92 169 -198 193 -249 233 -291 302 -325 73 -36 163 -38 233 -4 58 27
131 100 155 153 l18 40 -29 22 c-113 81 -355 326 -355 359 0 41 32 83 91 120
175 112 264 367 213 615 -38 186 -125 286 -299 341 -43 13 -128 16 -584 16
l-533 1 6 -57z m850 -334 c74 -19 112 -46 126 -89 15 -47 4 -80 -40 -120 -52
-47 -139 -78 -235 -83 -72 -5 -83 -3 -109 18 -56 44 -71 129 -37 206 11 23 30
47 43 54 55 30 166 36 252 14z"/>
</g>
</svg>
